{
	"asset":{
		"generator":"Khronos glTF Blender I/O v5.1.18",
		"version":"2.0"
	},
	"scene":0,
	"scenes":[
		{
			"name":"Scene",
			"nodes":[
				0,
				1,
				2,
				3,
				4,
				5,
				6,
				7,
				8,
				9,
				10,
				11,
				12
			]
		}
	],
	"nodes":[
		{
			"mesh":0,
			"name":"Arm.001"
		},
		{
			"mesh":1,
			"name":"Chest.001"
		},
		{
			"mesh":2,
			"name":"Feet.001"
		},
		{
			"mesh":3,
			"name":"Forearm.001"
		},
		{
			"mesh":4,
			"name":"Hand.001"
		},
		{
			"mesh":5,
			"name":"Head.001"
		},
		{
			"mesh":6,
			"name":"Icosphere.001"
		},
		{
			"mesh":7,
			"name":"Knee Right.001"
		},
		{
			"mesh":8,
			"name":"Neck.001"
		},
		{
			"mesh":9,
			"name":"Pelvis.001"
		},
		{
			"mesh":10,
			"name":"Sheen Right.001"
		},
		{
			"mesh":11,
			"name":"Thigh Right.001"
		},
		{
			"mesh":12,
			"name":"Thumb.001"
		}
	],
	"materials":[
		{
			"doubleSided":true,
			"name":"Matte.014",
			"pbrMetallicRoughness":{
				"baseColorTexture":{
					"index":0
				},
				"metallicFactor":0,
				"roughnessFactor":0.8105263113975525
			}
		},
		{
			"doubleSided":true,
			"name":"Matte.015",
			"pbrMetallicRoughness":{
				"baseColorTexture":{
					"index":1
				},
				"metallicFactor":0,
				"roughnessFactor":0.8105263113975525
			}
		},
		{
			"doubleSided":true,
			"name":"Matte.016",
			"pbrMetallicRoughness":{
				"baseColorTexture":{
					"index":2
				},
				"metallicFactor":0,
				"roughnessFactor":0.8105263113975525
			}
		},
		{
			"doubleSided":true,
			"name":"Matte.017",
			"pbrMetallicRoughness":{
				"baseColorTexture":{
					"index":3
				},
				"metallicFactor":0,
				"roughnessFactor":0.8105263113975525
			}
		},
		{
			"doubleSided":true,
			"name":"Matte.018",
			"pbrMetallicRoughness":{
				"baseColorTexture":{
					"index":4
				},
				"metallicFactor":0,
				"roughnessFactor":0.8105263113975525
			}
		},
		{
			"doubleSided":true,
			"name":"Matte.019",
			"pbrMetallicRoughness":{
				"baseColorTexture":{
					"index":5
				},
				"metallicFactor":0,
				"roughnessFactor":0.8105263113975525
			}
		},
		{
			"doubleSided":true,
			"name":"Matte.020",
			"pbrMetallicRoughness":{
				"baseColorTexture":{
					"index":6
				},
				"metallicFactor":0,
				"roughnessFactor":0.8105263113975525
			}
		},
		{
			"doubleSided":true,
			"name":"Matte.021",
			"pbrMetallicRoughness":{
				"baseColorTexture":{
					"index":7
				},
				"metallicFactor":0,
				"roughnessFactor":0.8105263113975525
			}
		},
		{
			"doubleSided":true,
			"name":"Matte.022",
			"pbrMetallicRoughness":{
				"baseColorTexture":{
					"index":8
				},
				"metallicFactor":0,
				"roughnessFactor":0.8105263113975525
			}
		},
		{
			"doubleSided":true,
			"name":"Matte.023",
			"pbrMetallicRoughness":{
				"baseColorTexture":{
					"index":9
				},
				"metallicFactor":0,
				"roughnessFactor":0.8105263113975525
			}
		},
		{
			"doubleSided":true,
			"name":"Matte.024",
			"pbrMetallicRoughness":{
				"baseColorTexture":{
					"index":10
				},
				"metallicFactor":0,
				"roughnessFactor":0.8105263113975525
			}
		},
		{
			"doubleSided":true,
			"name":"Matte.025",
			"pbrMetallicRoughness":{
				"baseColorTexture":{
					"index":11
				},
				"metallicFactor":0,
				"roughnessFactor":0.8105263113975525
			}
		},
		{
			"doubleSided":true,
			"name":"Matte",
			"pbrMetallicRoughness":{
				"baseColorTexture":{
					"index":12
				},
				"metallicFactor":0,
				"roughnessFactor":0.8105263113975525
			}
		}
	],
	"meshes":[
		{
			"name":"Cube.010",
			"primitives":[
				{
					"attributes":{
						"POSITION":0,
						"NORMAL":1,
						"TEXCOORD_0":2
					},
					"indices":3,
					"material":0
				}
			]
		},
		{
			"name":"Cube.011",
			"primitives":[
				{
					"attributes":{
						"POSITION":4,
						"NORMAL":5,
						"TEXCOORD_0":6
					},
					"indices":7,
					"material":1
				}
			]
		},
		{
			"name":"Cube.012",
			"primitives":[
				{
					"attributes":{
						"POSITION":8,
						"NORMAL":9,
						"TEXCOORD_0":10
					},
					"indices":11,
					"material":2
				}
			]
		},
		{
			"name":"Cube.013",
			"primitives":[
				{
					"attributes":{
						"POSITION":12,
						"NORMAL":13,
						"TEXCOORD_0":14
					},
					"indices":15,
					"material":3
				}
			]
		},
		{
			"name":"Cube.014",
			"primitives":[
				{
					"attributes":{
						"POSITION":16,
						"NORMAL":17,
						"TEXCOORD_0":18
					},
					"indices":19,
					"material":4
				}
			]
		},
		{
			"name":"Cube.015",
			"primitives":[
				{
					"attributes":{
						"POSITION":20,
						"NORMAL":21,
						"TEXCOORD_0":22
					},
					"indices":23,
					"material":5
				}
			]
		},
		{
			"name":"Icosphere.002",
			"primitives":[
				{
					"attributes":{
						"POSITION":24,
						"NORMAL":25,
						"TEXCOORD_0":26
					},
					"indices":27,
					"material":6
				}
			]
		},
		{
			"name":"Icosphere.003",
			"primitives":[
				{
					"attributes":{
						"POSITION":28,
						"NORMAL":29,
						"TEXCOORD_0":30
					},
					"indices":31,
					"material":7
				}
			]
		},
		{
			"name":"Cylinder.001",
			"primitives":[
				{
					"attributes":{
						"POSITION":32,
						"NORMAL":33,
						"TEXCOORD_0":34
					},
					"indices":35,
					"material":8
				}
			]
		},
		{
			"name":"Cube.016",
			"primitives":[
				{
					"attributes":{
						"POSITION":36,
						"NORMAL":37,
						"TEXCOORD_0":38
					},
					"indices":39,
					"material":9
				}
			]
		},
		{
			"name":"Cube.017",
			"primitives":[
				{
					"attributes":{
						"POSITION":40,
						"NORMAL":41,
						"TEXCOORD_0":42
					},
					"indices":43,
					"material":10
				}
			]
		},
		{
			"name":"Cube.018",
			"primitives":[
				{
					"attributes":{
						"POSITION":44,
						"NORMAL":45,
						"TEXCOORD_0":46
					},
					"indices":47,
					"material":11
				}
			]
		},
		{
			"name":"Cube.019",
			"primitives":[
				{
					"attributes":{
						"POSITION":48,
						"NORMAL":49,
						"TEXCOORD_0":50
					},
					"indices":51,
					"material":12
				}
			]
		}
	],
	"textures":[
		{
			"sampler":0,
			"source":0
		},
		{
			"sampler":0,
			"source":0
		},
		{
			"sampler":0,
			"source":0
		},
		{
			"sampler":0,
			"source":0
		},
		{
			"sampler":0,
			"source":0
		},
		{
			"sampler":0,
			"source":0
		},
		{
			"sampler":0,
			"source":0
		},
		{
			"sampler":0,
			"source":0
		},
		{
			"sampler":0,
			"source":0
		},
		{
			"sampler":0,
			"source":0
		},
		{
			"sampler":0,
			"source":0
		},
		{
			"sampler":0,
			"source":0
		},
		{
			"sampler":0,
			"source":0
		}
	],
	"images":[
		{
			"mimeType":"image/png",
			"name":"apollo-32x",
			"uri":"apollo-32x.png"
		}
	],
	"accessors":[
		{
			"bufferView":0,
			"componentType":5126,
			"count":48,
			"max":[
				0.5729049444198608,
				2.6604769229888916,
				0.04837947338819504
			],
			"min":[
				-0.5729049444198608,
				2.2995316982269287,
				-0.11890514194965363
			],
			"type":"VEC3"
		},
		{
			"bufferView":1,
			"componentType":5126,
			"count":48,
			"type":"VEC3"
		},
		{
			"bufferView":2,
			"componentType":5126,
			"count":48,
			"type":"VEC2"
		},
		{
			"bufferView":3,
			"componentType":5123,
			"count":72,
			"type":"SCALAR"
		},
		{
			"bufferView":4,
			"componentType":5126,
			"count":180,
			"max":[
				0.24586835503578186,
				2.75052547454834,
				0.3221748173236847
			],
			"min":[
				-0.24586835503578186,
				2.2082207202911377,
				-0.17638501524925232
			],
			"type":"VEC3"
		},
		{
			"bufferView":5,
			"componentType":5126,
			"count":180,
			"type":"VEC3"
		},
		{
			"bufferView":6,
			"componentType":5126,
			"count":180,
			"type":"VEC2"
		},
		{
			"bufferView":7,
			"componentType":5123,
			"count":312,
			"type":"SCALAR"
		},
		{
			"bufferView":8,
			"componentType":5126,
			"count":112,
			"max":[
				0.41603004932403564,
				0.20535629987716675,
				0.3029775023460388
			],
			"min":[
				-0.41603004932403564,
				0.009850829839706421,
				-0.21757414937019348
			],
			"type":"VEC3"
		},
		{
			"bufferView":9,
			"componentType":5126,
			"count":112,
			"type":"VEC3"
		},
		{
			"bufferView":10,
			"componentType":5126,
			"count":112,
			"type":"VEC2"
		},
		{
			"bufferView":11,
			"componentType":5123,
			"count":168,
			"type":"SCALAR"
		},
		{
			"bufferView":12,
			"componentType":5126,
			"count":48,
			"max":[
				0.8444886207580566,
				2.335392475128174,
				0.11449018865823746
			],
			"min":[
				-0.8444886207580566,
				1.9518038034439087,
				-0.11421529948711395
			],
			"type":"VEC3"
		},
		{
			"bufferView":13,
			"componentType":5126,
			"count":48,
			"type":"VEC3"
		},
		{
			"bufferView":14,
			"componentType":5126,
			"count":48,
			"type":"VEC2"
		},
		{
			"bufferView":15,
			"componentType":5123,
			"count":72,
			"type":"SCALAR"
		},
		{
			"bufferView":16,
			"componentType":5126,
			"count":80,
			"max":[
				0.9862010478973389,
				1.9641106128692627,
				0.2430453598499298
			],
			"min":[
				-0.9862010478973389,
				1.6306220293045044,
				0.012499220669269562
			],
			"type":"VEC3"
		},
		{
			"bufferView":17,
			"componentType":5126,
			"count":80,
			"type":"VEC3"
		},
		{
			"bufferView":18,
			"componentType":5126,
			"count":80,
			"type":"VEC2"
		},
		{
			"bufferView":19,
			"componentType":5123,
			"count":120,
			"type":"SCALAR"
		},
		{
			"bufferView":20,
			"componentType":5126,
			"count":88,
			"max":[
				0.14657843112945557,
				3.17734432220459,
				0.20556874573230743
			],
			"min":[
				-0.14657843112945557,
				2.787358045578003,
				-0.12994249165058136
			],
			"type":"VEC3"
		},
		{
			"bufferView":21,
			"componentType":5126,
			"count":88,
			"type":"VEC3"
		},
		{
			"bufferView":22,
			"componentType":5126,
			"count":88,
			"type":"VEC2"
		},
		{
			"bufferView":23,
			"componentType":5123,
			"count":132,
			"type":"SCALAR"
		},
		{
			"bufferView":24,
			"componentType":5126,
			"count":480,
			"max":[
				0.3235853314399719,
				2.7070164680480957,
				0.03742304444313049
			],
			"min":[
				-0.3235853314399719,
				2.5811691284179688,
				-0.09060776233673096
			],
			"type":"VEC3"
		},
		{
			"bufferView":25,
			"componentType":5126,
			"count":480,
			"type":"VEC3"
		},
		{
			"bufferView":26,
			"componentType":5126,
			"count":480,
			"type":"VEC2"
		},
		{
			"bufferView":27,
			"componentType":5123,
			"count":480,
			"type":"SCALAR"
		},
		{
			"bufferView":28,
			"componentType":5126,
			"count":480,
			"max":[
				0.3133193254470825,
				1.0534589290618896,
				0.06816397607326508
			],
			"min":[
				-0.3133193254470825,
				0.9104906916618347,
				-0.07480429112911224
			],
			"type":"VEC3"
		},
		{
			"bufferView":29,
			"componentType":5126,
			"count":480,
			"type":"VEC3"
		},
		{
			"bufferView":30,
			"componentType":5126,
			"count":480,
			"type":"VEC2"
		},
		{
			"bufferView":31,
			"componentType":5123,
			"count":480,
			"type":"SCALAR"
		},
		{
			"bufferView":32,
			"componentType":5126,
			"count":96,
			"max":[
				0.06633565574884415,
				2.9125325679779053,
				0.08306475728750229
			],
			"min":[
				-0.05415629968047142,
				2.708552360534668,
				-0.05618083477020264
			],
			"type":"VEC3"
		},
		{
			"bufferView":33,
			"componentType":5126,
			"count":96,
			"type":"VEC3"
		},
		{
			"bufferView":34,
			"componentType":5126,
			"count":96,
			"type":"VEC2"
		},
		{
			"bufferView":35,
			"componentType":5123,
			"count":180,
			"type":"SCALAR"
		},
		{
			"bufferView":36,
			"componentType":5126,
			"count":104,
			"max":[
				0.31052887439727783,
				2.1477644443511963,
				0.24451231956481934
			],
			"min":[
				-0.31052887439727783,
				1.6945178508758545,
				-0.2428838312625885
			],
			"type":"VEC3"
		},
		{
			"bufferView":37,
			"componentType":5126,
			"count":104,
			"type":"VEC3"
		},
		{
			"bufferView":38,
			"componentType":5126,
			"count":104,
			"type":"VEC2"
		},
		{
			"bufferView":39,
			"componentType":5123,
			"count":168,
			"type":"SCALAR"
		},
		{
			"bufferView":40,
			"componentType":5126,
			"count":112,
			"max":[
				0.3621131181716919,
				0.9319459199905396,
				0.05301569402217865
			],
			"min":[
				-0.3621131181716919,
				0.24027490615844727,
				-0.18057161569595337
			],
			"type":"VEC3"
		},
		{
			"bufferView":41,
			"componentType":5126,
			"count":112,
			"type":"VEC3"
		},
		{
			"bufferView":42,
			"componentType":5126,
			"count":112,
			"type":"VEC2"
		},
		{
			"bufferView":43,
			"componentType":5123,
			"count":168,
			"type":"SCALAR"
		},
		{
			"bufferView":44,
			"componentType":5126,
			"count":80,
			"max":[
				0.380620539188385,
				1.8144984245300293,
				0.10186191648244858
			],
			"min":[
				-0.380620539188385,
				1.0124200582504272,
				-0.19142813980579376
			],
			"type":"VEC3"
		},
		{
			"bufferView":45,
			"componentType":5126,
			"count":80,
			"type":"VEC3"
		},
		{
			"bufferView":46,
			"componentType":5126,
			"count":80,
			"type":"VEC2"
		},
		{
			"bufferView":47,
			"componentType":5123,
			"count":120,
			"type":"SCALAR"
		},
		{
			"bufferView":48,
			"componentType":5126,
			"count":80,
			"max":[
				0.8856377601623535,
				1.907083511352539,
				0.2527778148651123
			],
			"min":[
				-0.8856377601623535,
				1.8044445514678955,
				0.14068537950515747
			],
			"type":"VEC3"
		},
		{
			"bufferView":49,
			"componentType":5126,
			"count":80,
			"type":"VEC3"
		},
		{
			"bufferView":50,
			"componentType":5126,
			"count":80,
			"type":"VEC2"
		},
		{
			"bufferView":51,
			"componentType":5123,
			"count":120,
			"type":"SCALAR"
		}
	],
	"bufferViews":[
		{
			"buffer":0,
			"byteLength":576,
			"byteOffset":0,
			"target":34962
		},
		{
			"buffer":0,
			"byteLength":576,
			"byteOffset":576,
			"target":34962
		},
		{
			"buffer":0,
			"byteLength":384,
			"byteOffset":1152,
			"target":34962
		},
		{
			"buffer":0,
			"byteLength":144,
			"byteOffset":1536,
			"target":34963
		},
		{
			"buffer":0,
			"byteLength":2160,
			"byteOffset":1680,
			"target":34962
		},
		{
			"buffer":0,
			"byteLength":2160,
			"byteOffset":3840,
			"target":34962
		},
		{
			"buffer":0,
			"byteLength":1440,
			"byteOffset":6000,
			"target":34962
		},
		{
			"buffer":0,
			"byteLength":624,
			"byteOffset":7440,
			"target":34963
		},
		{
			"buffer":0,
			"byteLength":1344,
			"byteOffset":8064,
			"target":34962
		},
		{
			"buffer":0,
			"byteLength":1344,
			"byteOffset":9408,
			"target":34962
		},
		{
			"buffer":0,
			"byteLength":896,
			"byteOffset":10752,
			"target":34962
		},
		{
			"buffer":0,
			"byteLength":336,
			"byteOffset":11648,
			"target":34963
		},
		{
			"buffer":0,
			"byteLength":576,
			"byteOffset":11984,
			"target":34962
		},
		{
			"buffer":0,
			"byteLength":576,
			"byteOffset":12560,
			"target":34962
		},
		{
			"buffer":0,
			"byteLength":384,
			"byteOffset":13136,
			"target":34962
		},
		{
			"buffer":0,
			"byteLength":144,
			"byteOffset":13520,
			"target":34963
		},
		{
			"buffer":0,
			"byteLength":960,
			"byteOffset":13664,
			"target":34962
		},
		{
			"buffer":0,
			"byteLength":960,
			"byteOffset":14624,
			"target":34962
		},
		{
			"buffer":0,
			"byteLength":640,
			"byteOffset":15584,
			"target":34962
		},
		{
			"buffer":0,
			"byteLength":240,
			"byteOffset":16224,
			"target":34963
		},
		{
			"buffer":0,
			"byteLength":1056,
			"byteOffset":16464,
			"target":34962
		},
		{
			"buffer":0,
			"byteLength":1056,
			"byteOffset":17520,
			"target":34962
		},
		{
			"buffer":0,
			"byteLength":704,
			"byteOffset":18576,
			"target":34962
		},
		{
			"buffer":0,
			"byteLength":264,
			"byteOffset":19280,
			"target":34963
		},
		{
			"buffer":0,
			"byteLength":5760,
			"byteOffset":19544,
			"target":34962
		},
		{
			"buffer":0,
			"byteLength":5760,
			"byteOffset":25304,
			"target":34962
		},
		{
			"buffer":0,
			"byteLength":3840,
			"byteOffset":31064,
			"target":34962
		},
		{
			"buffer":0,
			"byteLength":960,
			"byteOffset":34904,
			"target":34963
		},
		{
			"buffer":0,
			"byteLength":5760,
			"byteOffset":35864,
			"target":34962
		},
		{
			"buffer":0,
			"byteLength":5760,
			"byteOffset":41624,
			"target":34962
		},
		{
			"buffer":0,
			"byteLength":3840,
			"byteOffset":47384,
			"target":34962
		},
		{
			"buffer":0,
			"byteLength":960,
			"byteOffset":51224,
			"target":34963
		},
		{
			"buffer":0,
			"byteLength":1152,
			"byteOffset":52184,
			"target":34962
		},
		{
			"buffer":0,
			"byteLength":1152,
			"byteOffset":53336,
			"target":34962
		},
		{
			"buffer":0,
			"byteLength":768,
			"byteOffset":54488,
			"target":34962
		},
		{
			"buffer":0,
			"byteLength":360,
			"byteOffset":55256,
			"target":34963
		},
		{
			"buffer":0,
			"byteLength":1248,
			"byteOffset":55616,
			"target":34962
		},
		{
			"buffer":0,
			"byteLength":1248,
			"byteOffset":56864,
			"target":34962
		},
		{
			"buffer":0,
			"byteLength":832,
			"byteOffset":58112,
			"target":34962
		},
		{
			"buffer":0,
			"byteLength":336,
			"byteOffset":58944,
			"target":34963
		},
		{
			"buffer":0,
			"byteLength":1344,
			"byteOffset":59280,
			"target":34962
		},
		{
			"buffer":0,
			"byteLength":1344,
			"byteOffset":60624,
			"target":34962
		},
		{
			"buffer":0,
			"byteLength":896,
			"byteOffset":61968,
			"target":34962
		},
		{
			"buffer":0,
			"byteLength":336,
			"byteOffset":62864,
			"target":34963
		},
		{
			"buffer":0,
			"byteLength":960,
			"byteOffset":63200,
			"target":34962
		},
		{
			"buffer":0,
			"byteLength":960,
			"byteOffset":64160,
			"target":34962
		},
		{
			"buffer":0,
			"byteLength":640,
			"byteOffset":65120,
			"target":34962
		},
		{
			"buffer":0,
			"byteLength":240,
			"byteOffset":65760,
			"target":34963
		},
		{
			"buffer":0,
			"byteLength":960,
			"byteOffset":66000,
			"target":34962
		},
		{
			"buffer":0,
			"byteLength":960,
			"byteOffset":66960,
			"target":34962
		},
		{
			"buffer":0,
			"byteLength":640,
			"byteOffset":67920,
			"target":34962
		},
		{
			"buffer":0,
			"byteLength":240,
			"byteOffset":68560,
			"target":34963
		}
	],
	"samplers":[
		{
			"magFilter":9729,
			"minFilter":9987
		}
	],
	"buffers":[
		{
			"byteLength":68800,
			"uri":"Block_Woman.bin"
		}
	]
}
