{
	"asset":{
		"generator":"Khronos glTF Blender I/O v5.1.18",
		"version":"2.0"
	},
	"scene":0,
	"scenes":[
		{
			"name":"Scene",
			"nodes":[
				0,
				1,
				2,
				3,
				4,
				5,
				6,
				7,
				8,
				9,
				10,
				11,
				12
			]
		}
	],
	"nodes":[
		{
			"mesh":0,
			"name":"Arm"
		},
		{
			"mesh":1,
			"name":"Chest"
		},
		{
			"mesh":2,
			"name":"Feet"
		},
		{
			"mesh":3,
			"name":"Forearm"
		},
		{
			"mesh":4,
			"name":"Hand"
		},
		{
			"mesh":5,
			"name":"Head"
		},
		{
			"mesh":6,
			"name":"Icosphere"
		},
		{
			"mesh":7,
			"name":"Knee Right"
		},
		{
			"mesh":8,
			"name":"Neck"
		},
		{
			"mesh":9,
			"name":"Pelvis"
		},
		{
			"mesh":10,
			"name":"Sheen Right"
		},
		{
			"mesh":11,
			"name":"Thigh Right"
		},
		{
			"mesh":12,
			"name":"Thumb"
		}
	],
	"materials":[
		{
			"doubleSided":true,
			"name":"Matte",
			"pbrMetallicRoughness":{
				"baseColorTexture":{
					"index":0
				},
				"metallicFactor":0,
				"roughnessFactor":0.8105263113975525
			}
		}
	],
	"meshes":[
		{
			"name":"Cube.005",
			"primitives":[
				{
					"attributes":{
						"POSITION":0,
						"NORMAL":1,
						"TEXCOORD_0":2
					},
					"indices":3,
					"material":0
				}
			]
		},
		{
			"name":"Cube.003",
			"primitives":[
				{
					"attributes":{
						"POSITION":4,
						"NORMAL":5,
						"TEXCOORD_0":6
					},
					"indices":7,
					"material":0
				}
			]
		},
		{
			"name":"Cube.004",
			"primitives":[
				{
					"attributes":{
						"POSITION":8,
						"NORMAL":9,
						"TEXCOORD_0":10
					},
					"indices":11,
					"material":0
				}
			]
		},
		{
			"name":"Cube.006",
			"primitives":[
				{
					"attributes":{
						"POSITION":12,
						"NORMAL":13,
						"TEXCOORD_0":14
					},
					"indices":15,
					"material":0
				}
			]
		},
		{
			"name":"Cube.007",
			"primitives":[
				{
					"attributes":{
						"POSITION":16,
						"NORMAL":17,
						"TEXCOORD_0":18
					},
					"indices":19,
					"material":0
				}
			]
		},
		{
			"name":"Cube.009",
			"primitives":[
				{
					"attributes":{
						"POSITION":20,
						"NORMAL":21,
						"TEXCOORD_0":22
					},
					"indices":23,
					"material":0
				}
			]
		},
		{
			"name":"Icosphere.001",
			"primitives":[
				{
					"attributes":{
						"POSITION":24,
						"NORMAL":25,
						"TEXCOORD_0":26
					},
					"indices":27,
					"material":0
				}
			]
		},
		{
			"name":"Icosphere",
			"primitives":[
				{
					"attributes":{
						"POSITION":28,
						"NORMAL":29,
						"TEXCOORD_0":30
					},
					"indices":27,
					"material":0
				}
			]
		},
		{
			"name":"Cylinder",
			"primitives":[
				{
					"attributes":{
						"POSITION":31,
						"NORMAL":32,
						"TEXCOORD_0":33
					},
					"indices":34,
					"material":0
				}
			]
		},
		{
			"name":"Cube.002",
			"primitives":[
				{
					"attributes":{
						"POSITION":35,
						"NORMAL":36,
						"TEXCOORD_0":37
					},
					"indices":38,
					"material":0
				}
			]
		},
		{
			"name":"Cube.001",
			"primitives":[
				{
					"attributes":{
						"POSITION":39,
						"NORMAL":40,
						"TEXCOORD_0":41
					},
					"indices":42,
					"material":0
				}
			]
		},
		{
			"name":"Cube",
			"primitives":[
				{
					"attributes":{
						"POSITION":43,
						"NORMAL":44,
						"TEXCOORD_0":45
					},
					"indices":46,
					"material":0
				}
			]
		},
		{
			"name":"Cube.008",
			"primitives":[
				{
					"attributes":{
						"POSITION":47,
						"NORMAL":48,
						"TEXCOORD_0":49
					},
					"indices":50,
					"material":0
				}
			]
		}
	],
	"textures":[
		{
			"sampler":0,
			"source":0
		}
	],
	"images":[
		{
			"mimeType":"image/png",
			"name":"apollo-32x",
			"uri":"apollo-32x.png"
		}
	],
	"accessors":[
		{
			"bufferView":0,
			"componentType":5126,
			"count":48,
			"max":[
				0.7377526164054871,
				2.9315762519836426,
				0.012244187295436859
			],
			"min":[
				-0.7377526164054871,
				2.4220938682556152,
				-0.18074987828731537
			],
			"type":"VEC3"
		},
		{
			"bufferView":1,
			"componentType":5126,
			"count":48,
			"type":"VEC3"
		},
		{
			"bufferView":2,
			"componentType":5126,
			"count":48,
			"type":"VEC2"
		},
		{
			"bufferView":3,
			"componentType":5123,
			"count":72,
			"type":"SCALAR"
		},
		{
			"bufferView":4,
			"componentType":5126,
			"count":112,
			"max":[
				0.419216513633728,
				3.1554229259490967,
				0.32456085085868835
			],
			"min":[
				-0.419216513633728,
				2.523061990737915,
				-0.34393179416656494
			],
			"type":"VEC3"
		},
		{
			"bufferView":5,
			"componentType":5126,
			"count":112,
			"type":"VEC3"
		},
		{
			"bufferView":6,
			"componentType":5126,
			"count":112,
			"type":"VEC2"
		},
		{
			"bufferView":7,
			"componentType":5123,
			"count":168,
			"type":"SCALAR"
		},
		{
			"bufferView":8,
			"componentType":5126,
			"count":112,
			"max":[
				0.38026291131973267,
				0.22735372185707092,
				0.41191786527633667
			],
			"min":[
				-0.38026291131973267,
				0.0018015950918197632,
				-0.18863585591316223
			],
			"type":"VEC3"
		},
		{
			"bufferView":9,
			"componentType":5126,
			"count":112,
			"type":"VEC3"
		},
		{
			"bufferView":10,
			"componentType":5126,
			"count":112,
			"type":"VEC2"
		},
		{
			"bufferView":11,
			"componentType":5123,
			"count":168,
			"type":"SCALAR"
		},
		{
			"bufferView":12,
			"componentType":5126,
			"count":48,
			"max":[
				0.8408322930335999,
				2.445512294769287,
				0.0885152742266655
			],
			"min":[
				-0.8408322930335999,
				1.9549787044525146,
				-0.17533932626247406
			],
			"type":"VEC3"
		},
		{
			"bufferView":13,
			"componentType":5126,
			"count":48,
			"type":"VEC3"
		},
		{
			"bufferView":14,
			"componentType":5126,
			"count":48,
			"type":"VEC2"
		},
		{
			"bufferView":15,
			"componentType":5123,
			"count":72,
			"type":"SCALAR"
		},
		{
			"bufferView":16,
			"componentType":5126,
			"count":80,
			"max":[
				0.8698306679725647,
				1.9750159978866577,
				0.23682767152786255
			],
			"min":[
				-0.8698306679725647,
				1.5484302043914795,
				-0.029150404036045074
			],
			"type":"VEC3"
		},
		{
			"bufferView":17,
			"componentType":5126,
			"count":80,
			"type":"VEC3"
		},
		{
			"bufferView":18,
			"componentType":5126,
			"count":80,
			"type":"VEC2"
		},
		{
			"bufferView":19,
			"componentType":5123,
			"count":120,
			"type":"SCALAR"
		},
		{
			"bufferView":20,
			"componentType":5126,
			"count":86,
			"max":[
				0.1691056340932846,
				3.754033327102661,
				0.21034935116767883
			],
			"min":[
				-0.16017641127109528,
				3.2395684719085693,
				-0.19549444317817688
			],
			"type":"VEC3"
		},
		{
			"bufferView":21,
			"componentType":5126,
			"count":86,
			"type":"VEC3"
		},
		{
			"bufferView":22,
			"componentType":5126,
			"count":86,
			"type":"VEC2"
		},
		{
			"bufferView":23,
			"componentType":5123,
			"count":132,
			"type":"SCALAR"
		},
		{
			"bufferView":24,
			"componentType":5126,
			"count":480,
			"max":[
				0.5669552683830261,
				3.0909476280212402,
				0.02774427831172943
			],
			"min":[
				-0.5669552683830261,
				2.8869595527648926,
				-0.17624390125274658
			],
			"type":"VEC3"
		},
		{
			"bufferView":25,
			"componentType":5126,
			"count":480,
			"type":"VEC3"
		},
		{
			"bufferView":26,
			"componentType":5126,
			"count":480,
			"type":"VEC2"
		},
		{
			"bufferView":27,
			"componentType":5123,
			"count":480,
			"type":"SCALAR"
		},
		{
			"bufferView":28,
			"componentType":5126,
			"count":480,
			"max":[
				0.26408228278160095,
				1.2326014041900635,
				0.12803907692432404
			],
			"min":[
				-0.26408228278160095,
				1.03023362159729,
				-0.07432878017425537
			],
			"type":"VEC3"
		},
		{
			"bufferView":29,
			"componentType":5126,
			"count":480,
			"type":"VEC3"
		},
		{
			"bufferView":30,
			"componentType":5126,
			"count":480,
			"type":"VEC2"
		},
		{
			"bufferView":31,
			"componentType":5126,
			"count":96,
			"max":[
				0.148373082280159,
				3.391432285308838,
				0.03491571545600891
			],
			"min":[
				-0.1417812705039978,
				3.0930049419403076,
				-0.23883472383022308
			],
			"type":"VEC3"
		},
		{
			"bufferView":32,
			"componentType":5126,
			"count":96,
			"type":"VEC3"
		},
		{
			"bufferView":33,
			"componentType":5126,
			"count":96,
			"type":"VEC2"
		},
		{
			"bufferView":34,
			"componentType":5123,
			"count":180,
			"type":"SCALAR"
		},
		{
			"bufferView":35,
			"componentType":5126,
			"count":72,
			"max":[
				0.3184655010700226,
				2.491492509841919,
				0.28769659996032715
			],
			"min":[
				-0.3184655010700226,
				2.0193214416503906,
				-0.23952892422676086
			],
			"type":"VEC3"
		},
		{
			"bufferView":36,
			"componentType":5126,
			"count":72,
			"type":"VEC3"
		},
		{
			"bufferView":37,
			"componentType":5126,
			"count":72,
			"type":"VEC2"
		},
		{
			"bufferView":38,
			"componentType":5123,
			"count":108,
			"type":"SCALAR"
		},
		{
			"bufferView":39,
			"componentType":5126,
			"count":112,
			"max":[
				0.3040110468864441,
				1.0957255363464355,
				0.08354133367538452
			],
			"min":[
				-0.3040110468864441,
				0.23767340183258057,
				-0.2239244431257248
			],
			"type":"VEC3"
		},
		{
			"bufferView":40,
			"componentType":5126,
			"count":112,
			"type":"VEC3"
		},
		{
			"bufferView":41,
			"componentType":5126,
			"count":112,
			"type":"VEC2"
		},
		{
			"bufferView":42,
			"componentType":5123,
			"count":168,
			"type":"SCALAR"
		},
		{
			"bufferView":43,
			"componentType":5126,
			"count":80,
			"max":[
				0.4039389491081238,
				2.1404290199279785,
				0.1529688537120819
			],
			"min":[
				-0.4039389491081238,
				1.202696442604065,
				-0.18919435143470764
			],
			"type":"VEC3"
		},
		{
			"bufferView":44,
			"componentType":5126,
			"count":80,
			"type":"VEC3"
		},
		{
			"bufferView":45,
			"componentType":5126,
			"count":80,
			"type":"VEC2"
		},
		{
			"bufferView":46,
			"componentType":5123,
			"count":120,
			"type":"SCALAR"
		},
		{
			"bufferView":47,
			"componentType":5126,
			"count":80,
			"max":[
				0.8386644721031189,
				1.9215776920318604,
				0.24805587530136108
			],
			"min":[
				-0.8386644721031189,
				1.8041781187057495,
				0.11873628944158554
			],
			"type":"VEC3"
		},
		{
			"bufferView":48,
			"componentType":5126,
			"count":80,
			"type":"VEC3"
		},
		{
			"bufferView":49,
			"componentType":5126,
			"count":80,
			"type":"VEC2"
		},
		{
			"bufferView":50,
			"componentType":5123,
			"count":120,
			"type":"SCALAR"
		}
	],
	"bufferViews":[
		{
			"buffer":0,
			"byteLength":576,
			"byteOffset":0,
			"target":34962
		},
		{
			"buffer":0,
			"byteLength":576,
			"byteOffset":576,
			"target":34962
		},
		{
			"buffer":0,
			"byteLength":384,
			"byteOffset":1152,
			"target":34962
		},
		{
			"buffer":0,
			"byteLength":144,
			"byteOffset":1536,
			"target":34963
		},
		{
			"buffer":0,
			"byteLength":1344,
			"byteOffset":1680,
			"target":34962
		},
		{
			"buffer":0,
			"byteLength":1344,
			"byteOffset":3024,
			"target":34962
		},
		{
			"buffer":0,
			"byteLength":896,
			"byteOffset":4368,
			"target":34962
		},
		{
			"buffer":0,
			"byteLength":336,
			"byteOffset":5264,
			"target":34963
		},
		{
			"buffer":0,
			"byteLength":1344,
			"byteOffset":5600,
			"target":34962
		},
		{
			"buffer":0,
			"byteLength":1344,
			"byteOffset":6944,
			"target":34962
		},
		{
			"buffer":0,
			"byteLength":896,
			"byteOffset":8288,
			"target":34962
		},
		{
			"buffer":0,
			"byteLength":336,
			"byteOffset":9184,
			"target":34963
		},
		{
			"buffer":0,
			"byteLength":576,
			"byteOffset":9520,
			"target":34962
		},
		{
			"buffer":0,
			"byteLength":576,
			"byteOffset":10096,
			"target":34962
		},
		{
			"buffer":0,
			"byteLength":384,
			"byteOffset":10672,
			"target":34962
		},
		{
			"buffer":0,
			"byteLength":144,
			"byteOffset":11056,
			"target":34963
		},
		{
			"buffer":0,
			"byteLength":960,
			"byteOffset":11200,
			"target":34962
		},
		{
			"buffer":0,
			"byteLength":960,
			"byteOffset":12160,
			"target":34962
		},
		{
			"buffer":0,
			"byteLength":640,
			"byteOffset":13120,
			"target":34962
		},
		{
			"buffer":0,
			"byteLength":240,
			"byteOffset":13760,
			"target":34963
		},
		{
			"buffer":0,
			"byteLength":1032,
			"byteOffset":14000,
			"target":34962
		},
		{
			"buffer":0,
			"byteLength":1032,
			"byteOffset":15032,
			"target":34962
		},
		{
			"buffer":0,
			"byteLength":688,
			"byteOffset":16064,
			"target":34962
		},
		{
			"buffer":0,
			"byteLength":264,
			"byteOffset":16752,
			"target":34963
		},
		{
			"buffer":0,
			"byteLength":5760,
			"byteOffset":17016,
			"target":34962
		},
		{
			"buffer":0,
			"byteLength":5760,
			"byteOffset":22776,
			"target":34962
		},
		{
			"buffer":0,
			"byteLength":3840,
			"byteOffset":28536,
			"target":34962
		},
		{
			"buffer":0,
			"byteLength":960,
			"byteOffset":32376,
			"target":34963
		},
		{
			"buffer":0,
			"byteLength":5760,
			"byteOffset":33336,
			"target":34962
		},
		{
			"buffer":0,
			"byteLength":5760,
			"byteOffset":39096,
			"target":34962
		},
		{
			"buffer":0,
			"byteLength":3840,
			"byteOffset":44856,
			"target":34962
		},
		{
			"buffer":0,
			"byteLength":1152,
			"byteOffset":48696,
			"target":34962
		},
		{
			"buffer":0,
			"byteLength":1152,
			"byteOffset":49848,
			"target":34962
		},
		{
			"buffer":0,
			"byteLength":768,
			"byteOffset":51000,
			"target":34962
		},
		{
			"buffer":0,
			"byteLength":360,
			"byteOffset":51768,
			"target":34963
		},
		{
			"buffer":0,
			"byteLength":864,
			"byteOffset":52128,
			"target":34962
		},
		{
			"buffer":0,
			"byteLength":864,
			"byteOffset":52992,
			"target":34962
		},
		{
			"buffer":0,
			"byteLength":576,
			"byteOffset":53856,
			"target":34962
		},
		{
			"buffer":0,
			"byteLength":216,
			"byteOffset":54432,
			"target":34963
		},
		{
			"buffer":0,
			"byteLength":1344,
			"byteOffset":54648,
			"target":34962
		},
		{
			"buffer":0,
			"byteLength":1344,
			"byteOffset":55992,
			"target":34962
		},
		{
			"buffer":0,
			"byteLength":896,
			"byteOffset":57336,
			"target":34962
		},
		{
			"buffer":0,
			"byteLength":336,
			"byteOffset":58232,
			"target":34963
		},
		{
			"buffer":0,
			"byteLength":960,
			"byteOffset":58568,
			"target":34962
		},
		{
			"buffer":0,
			"byteLength":960,
			"byteOffset":59528,
			"target":34962
		},
		{
			"buffer":0,
			"byteLength":640,
			"byteOffset":60488,
			"target":34962
		},
		{
			"buffer":0,
			"byteLength":240,
			"byteOffset":61128,
			"target":34963
		},
		{
			"buffer":0,
			"byteLength":960,
			"byteOffset":61368,
			"target":34962
		},
		{
			"buffer":0,
			"byteLength":960,
			"byteOffset":62328,
			"target":34962
		},
		{
			"buffer":0,
			"byteLength":640,
			"byteOffset":63288,
			"target":34962
		},
		{
			"buffer":0,
			"byteLength":240,
			"byteOffset":63928,
			"target":34963
		}
	],
	"samplers":[
		{
			"magFilter":9729,
			"minFilter":9987
		}
	],
	"buffers":[
		{
			"byteLength":64168,
			"uri":"block_man.bin"
		}
	]
}
