{
	"asset":{
		"generator":"Khronos glTF Blender I/O v5.1.18",
		"version":"2.0"
	},
	"extensionsUsed":[
		"KHR_lights_punctual"
	],
	"extensionsRequired":[
		"KHR_lights_punctual"
	],
	"extensions":{
		"KHR_lights_punctual":{
			"lights":[
				{
					"color":[
						1,
						1,
						1
					],
					"intensity":10870.28261317645,
					"spot":{
						"innerConeAngle":0.14801350728193796,
						"outerConeAngle":0.1741335391998291
					},
					"type":"spot",
					"range":10,
					"name":"Light"
				},
				{
					"color":[
						1,
						1,
						1
					],
					"intensity":10870.28261317645,
					"spot":{
						"innerConeAngle":0.14801350728193796,
						"outerConeAngle":0.1741335391998291
					},
					"type":"spot",
					"range":10,
					"name":"Light.001"
				},
				{
					"color":[
						1,
						1,
						1
					],
					"intensity":10870.28261317645,
					"spot":{
						"innerConeAngle":0.14801350728193796,
						"outerConeAngle":0.1741335391998291
					},
					"type":"spot",
					"range":10,
					"name":"Light.002"
				}
			]
		}
	},
	"scene":0,
	"scenes":[
		{
			"name":"Scene",
			"nodes":[
				0,
				1,
				2,
				3
			]
		}
	],
	"nodes":[
		{
			"mesh":0,
			"name":"Cube"
		},
		{
			"extensions":{
				"KHR_lights_punctual":{
					"light":0
				}
			},
			"name":"Light",
			"rotation":[
				0.6825709939002991,
				-0.20826347172260284,
				-0.6717284321784973,
				0.19875648617744446
			],
			"translation":[
				0.37354427576065063,
				2.7721498012542725,
				-0.057260870933532715
			]
		},
		{
			"extensions":{
				"KHR_lights_punctual":{
					"light":1
				}
			},
			"name":"Light.001",
			"rotation":[
				0.6825709939002991,
				-0.20826347172260284,
				-0.6717284321784973,
				0.19875648617744446
			],
			"translation":[
				0.37354427576065063,
				2.7721498012542725,
				-0.6733861565589905
			]
		},
		{
			"extensions":{
				"KHR_lights_punctual":{
					"light":2
				}
			},
			"name":"Light.002",
			"rotation":[
				0.6825709939002991,
				-0.20826347172260284,
				-0.6717284321784973,
				0.19875648617744446
			],
			"translation":[
				0.37354427576065063,
				2.7721498012542725,
				0.6657719016075134
			]
		}
	],
	"materials":[
		{
			"doubleSided":true,
			"name":"Rough",
			"pbrMetallicRoughness":{
				"baseColorFactor":[
					0.800000011920929,
					0.800000011920929,
					0.800000011920929,
					1
				],
				"metallicFactor":0,
				"roughnessFactor":0.7080000042915344
			}
		},
		{
			"doubleSided":true,
			"emissiveFactor":[
				1,
				1,
				1
			],
			"name":"Emissive",
			"pbrMetallicRoughness":{
				"baseColorFactor":[
					0.800000011920929,
					0.800000011920929,
					0.800000011920929,
					1
				],
				"metallicFactor":0,
				"roughnessFactor":0.7960000038146973
			}
		}
	],
	"meshes":[
		{
			"name":"Cube",
			"primitives":[
				{
					"attributes":{
						"POSITION":0,
						"NORMAL":1,
						"TEXCOORD_0":2,
						"COLOR_0":3,
						"COLOR_1":4
					},
					"indices":5,
					"material":0
				},
				{
					"attributes":{
						"POSITION":6,
						"NORMAL":7,
						"TEXCOORD_0":8,
						"COLOR_0":9,
						"COLOR_1":10
					},
					"indices":11,
					"material":1
				}
			]
		}
	],
	"accessors":[
		{
			"bufferView":0,
			"componentType":5126,
			"count":78,
			"max":[
				0.25,
				3,
				1
			],
			"min":[
				-0.25,
				0,
				-1
			],
			"type":"VEC3"
		},
		{
			"bufferView":1,
			"componentType":5126,
			"count":78,
			"type":"VEC3"
		},
		{
			"bufferView":2,
			"componentType":5126,
			"count":78,
			"type":"VEC2"
		},
		{
			"bufferView":3,
			"componentType":5121,
			"count":78,
			"normalized":true,
			"type":"VEC4"
		},
		{
			"bufferView":4,
			"componentType":5123,
			"count":78,
			"normalized":true,
			"type":"VEC4"
		},
		{
			"bufferView":5,
			"componentType":5123,
			"count":174,
			"type":"SCALAR"
		},
		{
			"bufferView":6,
			"componentType":5126,
			"count":60,
			"max":[
				0.2581792175769806,
				2.8179287910461426,
				0.8786191344261169
			],
			"min":[
				0.25,
				2.719326972961426,
				-0.8786191344261169
			],
			"type":"VEC3"
		},
		{
			"bufferView":7,
			"componentType":5126,
			"count":60,
			"type":"VEC3"
		},
		{
			"bufferView":8,
			"componentType":5126,
			"count":60,
			"type":"VEC2"
		},
		{
			"bufferView":9,
			"componentType":5121,
			"count":60,
			"normalized":true,
			"type":"VEC4"
		},
		{
			"bufferView":10,
			"componentType":5123,
			"count":60,
			"normalized":true,
			"type":"VEC4"
		},
		{
			"bufferView":11,
			"componentType":5123,
			"count":90,
			"type":"SCALAR"
		}
	],
	"bufferViews":[
		{
			"buffer":0,
			"byteLength":936,
			"byteOffset":0,
			"target":34962
		},
		{
			"buffer":0,
			"byteLength":936,
			"byteOffset":936,
			"target":34962
		},
		{
			"buffer":0,
			"byteLength":624,
			"byteOffset":1872,
			"target":34962
		},
		{
			"buffer":0,
			"byteLength":312,
			"byteOffset":2496,
			"target":34962
		},
		{
			"buffer":0,
			"byteLength":624,
			"byteOffset":2808,
			"target":34962
		},
		{
			"buffer":0,
			"byteLength":348,
			"byteOffset":3432,
			"target":34963
		},
		{
			"buffer":0,
			"byteLength":720,
			"byteOffset":3780,
			"target":34962
		},
		{
			"buffer":0,
			"byteLength":720,
			"byteOffset":4500,
			"target":34962
		},
		{
			"buffer":0,
			"byteLength":480,
			"byteOffset":5220,
			"target":34962
		},
		{
			"buffer":0,
			"byteLength":240,
			"byteOffset":5700,
			"target":34962
		},
		{
			"buffer":0,
			"byteLength":480,
			"byteOffset":5940,
			"target":34962
		},
		{
			"buffer":0,
			"byteLength":180,
			"byteOffset":6420,
			"target":34963
		}
	],
	"buffers":[
		{
			"byteLength":6600,
			"uri":"simple_wall.bin"
		}
	]
}
